<?xml version="1.0" standalone="no"?><!DOCTYPE svg PUBLIC "-//W3C//DTD SVG 1.1//EN" "http://www.w3.org/Graphics/SVG/1.1/DTD/svg11.dtd"><svg t="1744705821814" class="icon" viewBox="0 0 1024 1024" version="1.1" xmlns="http://www.w3.org/2000/svg" p-id="5035" xmlns:xlink="http://www.w3.org/1999/xlink" width="16" height="16"><path d="M512 5.12C231.936 5.12 5.12 231.936 5.12 512s226.816 506.88 506.88 506.88 506.88-226.816 506.88-506.88-226.816-506.88-506.88-506.88z" fill="#D4237A" p-id="5036"></path><path d="M483.24608 445.24544h16.896c3.072 0 4.096 1.024 4.096 4.608v53.248c-6.656-0.512-13.824-0.512-20.992-1.024v-56.832zM368.55808 439.10144c2.048 0 3.072 1.024 3.072 3.584 1.536 17.92 3.072 34.816 5.12 53.248-6.656 1.024-13.312 1.024-20.48 1.536-2.56-19.456-4.608-38.4-7.168-57.856 7.168-0.512 13.312-0.512 19.456-0.512zM340.91008 442.17344c2.56-0.512 2.048 2.048 2.56 3.584 0.512 6.656 1.536 12.8 2.048 18.944 1.024 10.24 2.56 19.456 3.072 29.696v4.096l-15.36 2.56c-3.584-18.944-6.656-37.376-10.24-56.32 6.144-0.512 11.776-2.048 17.92-2.56zM172.97408 337.21344c0 34.304 0 68.096 0.512 102.4 0.512 17.92 1.024 35.328 2.56 53.248 1.536 20.992 4.096 43.008 5.632 64.512 0 1.024 0.512 1.536 0.512 2.56 7.168-0.512 14.336-1.024 21.504-1.024 30.208-1.024 59.904 3.072 88.576 14.336 13.824 5.632 27.136 11.776 39.424 20.992 9.728 7.68 12.288 16.896 6.656 30.208-2.56 8.192-8.192 14.848-15.36 20.48-16.896 13.312-34.304 25.088-54.272 31.744-14.336 4.608-28.672 8.192-43.52 10.752-19.456 3.072-38.912 4.096-58.368 6.144-4.096 0.512-7.68 0-12.288 0-2.048 0-2.56-1.024-2.56-3.072 0-8.704-1.024-17.92-1.536-26.624-1.024-11.776-2.048-23.04-3.584-34.304-2.048-16.384-4.096-31.744-5.632-48.128l-6.144-50.688c-2.048-16.384-3.584-32.768-5.632-49.152-2.56-18.944-5.12-37.376-8.192-56.32-3.072-22.528-7.68-44.544-13.312-66.56-0.512-1.024 0.512-3.072 1.024-3.584 18.944-7.168 37.888-14.848 56.832-22.528 6.656-2.56 7.168-3.584 7.168 4.608z m38.4 257.536c3.072 20.992 5.632 41.984 8.704 63.488 17.92-13.312 34.816-26.624 51.712-39.424-2.048-3.072-49.152-21.504-60.416-24.064zM363.95008 668.47744c-9.728-50.176-19.456-99.328-29.184-149.504 8.192-1.024 15.872-2.56 23.552-3.072 5.632-1.024 11.264-1.024 16.896-1.536 3.072-0.512 5.12 1.024 5.632 4.096 1.024 7.68 2.56 15.36 3.584 23.552 1.536 13.312 3.072 26.624 4.096 39.424 1.536 11.776 2.56 23.04 4.096 34.304 1.536 12.288 3.072 24.576 4.608 37.376 0.512 3.584 1.024 7.168 1.536 11.264-12.288 1.024-23.552 2.56-34.816 4.096zM446.38208 654.14144c-10.24-1.024-19.456-1.536-30.208-2.56-9.216-91.648-16.896-183.808-34.304-275.968 5.632-0.512 11.264-1.536 17.408-2.048l19.968-1.536c5.632-0.512 7.68 1.024 8.192 6.144l3.072 43.52c1.536 19.456 3.072 39.424 4.096 58.88 1.024 14.336 1.536 28.16 3.072 42.496 1.536 15.872 3.072 31.232 4.096 46.592 1.536 11.264 2.56 23.04 3.072 34.304 1.536 12.288 2.56 24.576 3.584 37.376l1.024 10.752c-0.512 2.048-1.536 2.56-3.072 2.048zM473.00608 445.24544c2.56 0 3.584 0.512 3.584 3.584-0.512 7.68 0 15.872 0 23.552v29.184c-5.632 0.512-10.752 1.024-16.384 1.536-1.536-18.944-3.072-37.376-4.608-57.856h17.408zM475.56608 671.54944c-1.024 0-2.56-1.536-2.56-2.56-1.536-16.896-3.072-33.28-4.608-50.176-1.536-15.36-3.072-31.232-4.096-46.592-1.536-15.872-3.072-31.744-4.096-48.128 0-1.024 0-2.048-0.512-3.072 4.096-1.024 7.168-1.536 11.264-1.536 10.24 0 20.48 0 30.208 0.512 2.56 0 4.096 2.048 4.096 4.096 0 5.12 0.512 10.24 0.512 15.36 0 23.552-0.512 47.616 0 71.168l1.536 56.832c0 1.024 0 2.56 0.512 4.608-11.264-0.512-22.016 0-32.256-0.512zM891.82208 445.24544h16.896c3.072 0 4.096 1.024 4.096 4.608v53.248c-6.656-0.512-13.824-0.512-20.992-1.024v-56.832zM777.13408 439.10144c2.048 0 3.072 1.024 3.072 3.584 1.536 17.92 3.072 34.816 5.12 53.248-6.656 1.024-13.312 1.024-20.48 1.536-2.56-19.456-4.608-38.4-7.168-57.856 7.168-0.512 13.312-0.512 19.456-0.512zM749.99808 442.17344c2.56-0.512 2.048 2.048 2.56 3.584 0.512 6.656 1.536 12.8 2.048 18.944 1.024 10.24 2.56 19.456 3.072 29.696v4.096l-15.872 2.56c-3.584-18.944-6.656-37.376-10.24-56.32 6.144-0.512 12.288-2.048 18.432-2.56zM581.55008 337.21344c0 34.304 0 68.096 0.512 102.4 0.512 17.92 1.024 35.328 2.56 53.248 1.536 20.992 4.096 43.008 5.632 64.512 0 1.024 0.512 1.536 0.512 2.56 7.168-0.512 14.336-1.024 21.504-1.024 30.208-1.024 59.904 3.072 88.576 14.336 13.824 5.632 27.136 11.776 39.424 20.992 9.728 7.68 12.288 16.896 6.656 30.208-2.56 8.192-8.192 14.848-15.36 20.48-16.896 13.312-34.304 25.088-54.272 31.744-14.336 4.608-28.672 8.192-43.52 10.752-19.456 3.072-38.912 4.096-58.368 6.144-4.096 0.512-7.68 0-12.288 0-2.048 0-2.56-1.024-2.56-3.072 0-8.704-1.024-17.92-1.536-26.624-1.024-11.776-2.048-23.04-3.584-34.304-2.048-16.384-4.096-31.744-5.632-48.128l-6.144-50.688c-2.048-16.384-3.584-32.768-5.632-49.152-2.56-18.944-5.12-37.376-8.192-56.32-3.072-22.016-7.168-44.032-12.8-65.536 0-1.024 1.024-3.072 1.536-3.072 18.944-7.168 37.888-14.848 56.832-22.528 5.632-4.096 6.144-5.12 6.144 3.072z m38.912 257.536c3.072 20.992 5.632 41.984 8.704 63.488 17.92-13.312 34.816-26.624 51.712-39.424-2.048-3.072-49.152-21.504-60.416-24.064zM772.52608 668.47744c-10.24-50.176-19.456-99.328-29.184-149.504 8.192-1.024 15.872-2.56 23.552-3.072 5.632-1.024 11.264-1.024 16.896-1.536 3.072-0.512 5.12 1.024 5.632 4.096 1.024 7.68 2.56 15.36 3.584 23.552 1.536 13.312 3.072 26.624 4.096 39.424 1.536 11.776 2.56 23.04 4.096 34.304 1.536 12.288 3.072 24.576 4.608 37.376 0.512 3.584 1.024 7.168 1.536 11.264-12.288 1.024-23.04 2.56-34.816 4.096zM854.95808 654.14144c-10.24-1.024-19.456-1.536-30.208-2.56-9.216-91.648-16.896-183.808-34.304-275.968 5.632-0.512 11.264-1.536 17.408-2.048l19.968-1.536c5.632-0.512 7.68 1.024 8.192 6.144l3.072 43.52c1.536 19.456 3.072 39.424 4.096 58.88 1.024 14.336 1.536 28.16 3.072 42.496 1.536 15.872 3.072 31.232 4.096 46.592 1.536 11.264 2.56 23.04 3.072 34.304 1.536 12.288 2.56 24.576 3.584 37.376l1.024 10.752c0 2.048-1.024 2.56-3.072 2.048zM881.58208 445.24544c2.56 0 3.584 0.512 3.584 3.584-0.512 7.68 0 15.872 0 23.552v29.184c-5.632 0.512-10.752 1.024-16.384 1.536-1.536-18.944-3.072-37.376-4.608-57.856h17.408zM884.65408 671.54944c-1.024 0-2.56-1.536-2.56-2.56-1.536-16.896-3.072-33.28-4.608-50.176-1.536-15.36-3.072-31.232-4.096-46.592-1.536-15.872-3.072-31.744-4.096-48.128 0-1.024 0-2.048-0.512-3.072 4.096-1.024 7.168-1.536 11.264-1.536 10.24 0 20.48 0 30.208 0.512 2.56 0 4.096 2.048 4.096 4.096 0 5.12 0.512 10.24 0.512 15.36 0 23.552-0.512 47.616 0 71.168l1.536 56.832c0 1.024 0 2.56 0.512 4.608-11.264-0.512-22.016 0-32.256-0.512z" fill="#FFFFFF" p-id="5037"></path></svg>