<?xml version="1.0" standalone="no"?><!DOCTYPE svg PUBLIC "-//W3C//DTD SVG 1.1//EN" "http://www.w3.org/Graphics/SVG/1.1/DTD/svg11.dtd"><svg t="1744703426068" class="icon" viewBox="0 0 1024 1024" version="1.1" xmlns="http://www.w3.org/2000/svg" p-id="6664" xmlns:xlink="http://www.w3.org/1999/xlink" width="16" height="16"><path d="M0 512a512 512 0 1 0 1024 0A512 512 0 1 0 0 512z" fill="#333333" p-id="6665"></path><path d="M523.52 213.146h96.666c3.532 12.083 6.707 23.244 10.24 34.355A142.643 142.643 0 0 0 748.8 353.485c13.158 2.509 19.712 7.014 19.507 20.838-0.358 26.317 0 52.685 0 81.255a237.21 237.21 0 0 1-143.104-42.445v212.89a174.08 174.08 0 0 1-30.72 99.993 182.426 182.426 0 0 1-216.32 70.86 195.891 195.891 0 0 1-119.961-208.434A189.44 189.44 0 0 1 454.81 426.854a103.68 103.68 0 0 1 13.26 2.663v109.721c-5.785-0.563-10.854-1.075-15.923-1.484a76.237 76.237 0 0 0-86.681 52.48A89.498 89.498 0 0 0 405.504 695.5a81.613 81.613 0 0 0 117.76-68.864c1.485-45.005 0.41-90.061 0.41-135.117V239.002c-0.154-7.936-0.154-15.872-0.154-25.856z" fill="#FFFFFF" p-id="6666"></path></svg>