<?xml version="1.0" standalone="no"?><!DOCTYPE svg PUBLIC "-//W3C//DTD SVG 1.1//EN" "http://www.w3.org/Graphics/SVG/1.1/DTD/svg11.dtd"><svg t="1747388089461" class="icon" viewBox="0 0 1024 1024" version="1.1" xmlns="http://www.w3.org/2000/svg" p-id="3418" xmlns:xlink="http://www.w3.org/1999/xlink" width="16" height="16"><path d="M457.6 840.704a82.304 82.304 0 0 1-74.624-42.368 78.208 78.208 0 0 1-2.816-74.368c11.264-24.704 23.552-49.024 35.584-73.472q41.856-85.76 83.84-171.392l69.504-142.08q36.352-74.24 72.704-148.736c2.432-5.12 5.248-9.728 12.032-10.24a13.696 13.696 0 0 1 14.72 17.28c-4.096 17.664-8.32 35.328-12.8 52.992-5.12 21.76-9.984 43.392-14.976 65.152s-9.856 42.496-14.72 64l-15.36 66.56q-7.296 32.128-14.848 64l-10.752 46.848q-7.296 32-14.848 64c-3.712 16.128-7.296 32.256-11.008 48.256-4.096 18.304-8.32 36.48-12.8 54.656-3.712 16-7.68 32.128-11.136 48.256a83.2 83.2 0 0 1-57.472 66.688 142.848 142.848 0 0 1-20.224 3.968z" fill="#597EF7" p-id="3419"></path><path d="M457.344 796.288a40.064 40.064 0 1 0-40.192-38.4 39.936 39.936 0 0 0 40.192 38.4z" fill="#C9C9C9" p-id="3420"></path><path d="M797.568 357.632a40.448 40.448 0 0 1 5.888 3.072 542.208 542.208 0 0 1 116.352 122.496 564.864 564.864 0 0 1 47.616 83.328c2.688 5.632 1.664 8.32-4.224 10.752l-88.32 35.584-62.848 25.6-4.224 1.408c-5.376 1.792-7.936 0-9.728-4.992a384 384 0 0 0-93.184-153.6c-5.248-5.376-5.376-7.296 0-12.8q43.264-52.608 86.784-105.216a46.976 46.976 0 0 1 5.888-5.632zM910.976 846.08h-98.688c-7.296 0-7.68 0-6.144-6.912a378.368 378.368 0 0 0 9.344-64.64 361.984 361.984 0 0 0-4.992-87.936v-1.408c-1.408-11.008 0-11.776 9.984-14.72 17.408-4.736 34.688-9.856 51.968-14.848l67.2-18.944 42.88-12.8c6.4-1.664 8.704 0 10.496 6.144 5.888 22.912 12.8 45.44 17.28 68.608a532.736 532.736 0 0 1 8.576 65.28c1.664 23.168 1.536 46.464 1.92 69.76 0 10.624-1.408 11.776-11.648 11.776zM450.56 353.024v11.904c0 3.968-1.536 7.552-7.296 7.936-19.328 1.28-38.4 1.408-57.856 4.48a480.896 480.896 0 0 0-59.648 14.208A338.304 338.304 0 0 0 254.848 422.4c-5.248 2.944-7.936 2.176-11.264-2.816L204.8 361.984c-4.096-6.016-3.584-8.832 2.432-12.8a488.064 488.064 0 0 1 118.784-64A521.472 521.472 0 0 1 409.6 262.016c8.704-1.664 17.664-2.816 26.496-3.968a6.528 6.528 0 0 1 8.192 6.912c1.408 20.864 2.688 41.856 4.096 62.848l1.92 25.6zM28.288 595.584c2.816-8.192 5.12-15.232 7.808-22.144A484.48 484.48 0 0 1 115.968 435.2c12.8-15.744 27.52-30.336 41.6-45.312 4.096-4.352 7.296-4.224 11.264 0 14.08 16.512 28.16 32.896 42.112 49.536 4.608 5.376 4.096 7.552-1.408 12.8-14.464 12.8-29.568 24.32-43.392 37.76a407.936 407.936 0 0 0-83.328 116.224c-5.376 10.88-6.016 11.136-17.408 6.912s-20.992-7.68-31.36-11.52c-2.304-1.408-3.84-4.096-5.76-6.016zM753.664 329.344c-1.536 2.944-2.432 5.12-3.712 7.04q-35.456 54.4-71.552 108.544c-4.096 6.272-6.912 6.912-12.8 2.56s-13.824-9.6-20.48-14.72a7.552 7.552 0 0 1-2.56-6.016c3.712-17.408 7.936-34.688 11.904-52.096l12.8-55.552 6.144-27.008c0.768-3.584 3.2-3.328 5.76-2.176 15.744 7.168 31.616 14.336 47.232 21.76 7.424 3.584 14.592 7.68 21.632 11.904a30.208 30.208 0 0 1 5.632 5.76zM3.712 753.28a487.552 487.552 0 0 1 9.984-102.4c1.28-6.4 4.352-8.192 10.752-6.4 9.856 2.688 19.84 5.12 29.568 7.936 6.144 1.792 7.04 3.328 5.376 9.472s-4.48 14.592-6.4 21.888c-3.2 12.8-6.656 25.6-8.96 38.4a436.992 436.992 0 0 0-8.32 75.264v40.192c0 6.784-1.152 8.96-7.936 8.96C10.112 846.08 12.8 847.104 9.984 832a394.24 394.24 0 0 1-6.272-78.72zM576 262.016l-14.592 29.824q-20.608 41.856-40.96 83.712c-1.792 3.968-3.712 4.992-7.936 3.84a107.136 107.136 0 0 0-15.616-2.432c-8.064-1.024-9.6-2.56-9.216-10.88 1.408-30.848 2.944-61.824 4.352-92.672v-11.392c0-3.712 2.304-7.168 7.68-7.04 13.824 0 27.648 1.152 41.6 2.048 8.832 0.64 17.792 1.792 26.624 2.944a45.184 45.184 0 0 1 8.064 2.048z" fill="#00C7FF" p-id="3421"></path><path d="M457.344 796.288a40.064 40.064 0 1 1 40.064-40.064 40.064 40.064 0 0 1-40.064 40.064z" fill="#FFFFFF" p-id="3422"></path></svg>