<?xml version="1.0" standalone="no"?><!DOCTYPE svg PUBLIC "-//W3C//DTD SVG 1.1//EN" "http://www.w3.org/Graphics/SVG/1.1/DTD/svg11.dtd"><svg t="1744718435924" class="icon" viewBox="0 0 1024 1024" version="1.1" xmlns="http://www.w3.org/2000/svg" p-id="3126" xmlns:xlink="http://www.w3.org/1999/xlink" width="16" height="16"><path d="M512 0C230.4 0 0 230.4 0 512s230.4 512 512 512 512-230.4 512-512S796.16 0 512 0z m235.562667 739.84c-10.24 15.317333-28.16 20.48-43.562667 10.24-120.32-74.24-271.36-89.642667-450.602667-48.682667-17.834667 5.205333-33.237333-7.637333-38.357333-22.997333-5.12-17.962667 7.68-33.28 23.04-38.4 194.56-43.562667 363.52-25.6 496.64 56.32 17.92 7.68 20.437333 28.117333 12.842667 43.52z m61.44-140.8c-12.842667 17.92-35.882667 25.6-53.845334 12.8-138.197333-84.48-348.117333-110.08-509.397333-58.88-20.437333 5.12-43.52-5.12-48.64-25.6-5.12-20.48 5.12-43.562667 25.6-48.682667C409.6 422.4 640 450.602667 798.72 547.84c15.402667 7.722667 23.04 33.28 10.282667 51.2z m5.12-143.36C650.24 358.4 376.32 348.16 220.16 396.842667c-25.6 7.637333-51.2-7.722667-58.88-30.762667-7.68-25.642667 7.68-51.2 30.72-58.922667 181.76-53.76 481.28-43.52 670.762667 69.162667 22.997333 12.8 30.677333 43.52 17.877333 66.56-12.757333 17.962667-43.52 25.557333-66.517333 12.8z" fill="#1DB954" p-id="3127"></path></svg>