<?xml version="1.0" standalone="no"?><!DOCTYPE svg PUBLIC "-//W3C//DTD SVG 1.1//EN" "http://www.w3.org/Graphics/SVG/1.1/DTD/svg11.dtd"><svg t="1741976003015" class="icon" viewBox="0 0 1024 1024" version="1.1" xmlns="http://www.w3.org/2000/svg" p-id="2286" xmlns:xlink="http://www.w3.org/1999/xlink" width="16" height="16"><path d="M512 512m-512 0a512 512 0 1 0 1024 0 512 512 0 1 0-1024 0Z" fill="#00ACED" p-id="2287"></path><path d="M819.0976 329.728a250.333867 250.333867 0 0 1-59.665067 62.395733 346.692267 346.692267 0 0 1-13.6192 112.5376c-9.3184 32.221867-23.483733 63.146667-42.496 92.7744a362.666667 362.666667 0 0 1-67.925333 78.609067c-26.248533 22.766933-57.890133 40.96-94.958933 54.545067A343.074133 343.074133 0 0 1 421.546667 750.933333 326.826667 326.826667 0 0 1 238.933333 696.797867c8.567467 0.989867 18.158933 1.467733 28.672 1.467733a230.741333 230.741333 0 0 0 147.6608-51.541333 115.131733 115.131733 0 0 1-69.2224-24.064 117.76 117.76 0 0 1-41.984-59.562667c8.0896 1.262933 15.598933 1.877333 22.459734 1.877333 10.581333 0 20.992-1.365333 31.300266-4.096a116.770133 116.770133 0 0 1-68.266666-41.642666 117.486933 117.486933 0 0 1-27.067734-76.6976v-1.501867a116.462933 116.462933 0 0 0 53.76 15.325867 119.7056 119.7056 0 0 1-38.638933-42.939734 119.296 119.296 0 0 1-14.336-57.480533c0-21.9136 5.393067-42.1888 16.1792-60.859733a337.7152 337.7152 0 0 0 108.4416 89.053866 327.850667 327.850667 0 0 0 136.738133 37.137067 136.874667 136.874667 0 0 1-2.901333-27.648c0-33.348267 11.605333-61.781333 34.747733-85.2992A113.7664 113.7664 0 0 1 640.6144 273.066667c34.372267 0 63.317333 12.6976 86.869333 38.0928a231.3216 231.3216 0 0 0 75.502934-29.115734 116.974933 116.974933 0 0 1-52.224 66.491734A233.472 233.472 0 0 0 819.2 329.8304l-0.1024-0.068267z" fill="#FFFFFF" p-id="2288"></path></svg>