<?xml version="1.0" standalone="no"?><!DOCTYPE svg PUBLIC "-//W3C//DTD SVG 1.1//EN" "http://www.w3.org/Graphics/SVG/1.1/DTD/svg11.dtd"><svg t="1744476337798" class="icon" viewBox="0 0 1024 1024" version="1.1" xmlns="http://www.w3.org/2000/svg" p-id="24236" width="16" height="16" xmlns:xlink="http://www.w3.org/1999/xlink"><path d="M1024 512A512 512 0 1 0 0 512a512 512 0 0 0 1024 0z" fill="#09B66D" opacity=".25" p-id="24237"></path><path d="M499.313778 277.276444a56.604444 56.604444 0 0 0-27.534222 15.246223l-179.2 179.2a56.888889 56.888889 0 1 0 80.440888 80.440889L455.111111 470.072889v221.070222a56.888889 56.888889 0 1 0 113.777778 0V470.129778l82.090667 82.033778a56.888889 56.888889 0 0 0 80.440888-80.440889L553.187556 293.489778a56.718222 56.718222 0 0 0-53.873778-16.213334z" fill="#09B66D" p-id="24238"></path></svg>