<?xml version="1.0" standalone="no"?><!DOCTYPE svg PUBLIC "-//W3C//DTD SVG 1.1//EN" "http://www.w3.org/Graphics/SVG/1.1/DTD/svg11.dtd"><svg t="1744905352930" class="icon" viewBox="0 0 1024 1024" version="1.1" xmlns="http://www.w3.org/2000/svg" p-id="9278" xmlns:xlink="http://www.w3.org/1999/xlink" width="16" height="16"><path d="M723.2 64H144c-19.2 0-35.2 16-35.2 35.2V864c0 19.2 16 35.2 35.2 35.2h579.2c19.2 0 35.2-16 35.2-35.2V99.2c0-19.2-16-35.2-35.2-35.2z m-291.2 681.6c0 6.4-6.4 12.8-12.8 12.8H201.6c-6.4 0-12.8-6.4-12.8-12.8V736c0-6.4 6.4-12.8 12.8-12.8h217.6c6.4 0 12.8 6.4 12.8 12.8v9.6z m0-124.8c0 6.4-6.4 12.8-12.8 12.8H201.6c-6.4 0-12.8-6.4-12.8-12.8v-9.6c0-6.4 6.4-12.8 12.8-12.8h217.6c6.4 0 12.8 6.4 12.8 12.8v9.6z m80-121.6c0 6.4-6.4 12.8-12.8 12.8H201.6c-6.4 0-12.8-6.4-12.8-12.8v-9.6c0-6.4 6.4-12.8 12.8-12.8h300.8c6.4 0 12.8 6.4 12.8 12.8v9.6z m153.6-124.8c0 6.4-6.4 12.8-12.8 12.8H201.6c-6.4 0-12.8-6.4-12.8-12.8v-9.6c0-6.4 6.4-12.8 12.8-12.8h451.2c6.4 0 12.8 6.4 12.8 12.8v9.6z m0-121.6c0 6.4-6.4 12.8-12.8 12.8H201.6c-6.4 0-12.8-6.4-12.8-12.8v-9.6c0-6.4 6.4-12.8 12.8-12.8h451.2c6.4 0 12.8 6.4 12.8 12.8v9.6z" fill="#68D279" p-id="9279"></path><path d="M736 758.4m-224 0a224 224 0 1 0 448 0 224 224 0 1 0-448 0Z" fill="#5B8FD9" p-id="9280"></path><path d="M736 985.6c-124.8 0-227.2-102.4-227.2-227.2s102.4-227.2 227.2-227.2 227.2 102.4 227.2 227.2-102.4 227.2-227.2 227.2z m0-448c-121.6 0-220.8 99.2-220.8 220.8 0 121.6 99.2 220.8 220.8 220.8 121.6 0 220.8-99.2 220.8-220.8 0-121.6-99.2-220.8-220.8-220.8z" fill="#FFFFFF" p-id="9281"></path><path d="M915.2 758.4c0 51.2-22.4 99.2-57.6 131.2-32 28.8-73.6 48-121.6 48s-89.6-19.2-121.6-48a178.88 178.88 0 0 1 121.6-310.4c99.2 0 179.2 80 179.2 179.2z" fill="#F9D65D" p-id="9282"></path><path d="M857.6 889.6c-32 28.8-73.6 48-121.6 48s-89.6-19.2-121.6-48c12.8-38.4 44.8-67.2 83.2-76.8-25.6-16-44.8-44.8-44.8-76.8 0-44.8 35.2-83.2 83.2-83.2 44.8 0 83.2 35.2 83.2 83.2 0 32-19.2 60.8-44.8 73.6 38.4 12.8 70.4 41.6 83.2 80z" fill="#FE6D68" p-id="9283"></path></svg>