<?xml version="1.0" standalone="no"?><!DOCTYPE svg PUBLIC "-//W3C//DTD SVG 1.1//EN" "http://www.w3.org/Graphics/SVG/1.1/DTD/svg11.dtd"><svg t="1744697491996" class="icon" viewBox="0 0 1024 1024" version="1.1" xmlns="http://www.w3.org/2000/svg" p-id="19450" xmlns:xlink="http://www.w3.org/1999/xlink" width="16" height="16"><path d="M512 1024C230.4 1024 0 793.6 0 512S230.4 0 512 0s512 230.4 512 512-230.4 512-512 512z" fill="#EC6646" p-id="19451"></path><path d="M473.6 672h73.6v38.4h-73.6V672z" fill="#1083EA" p-id="19452"></path><path d="M649.6 652.8v-54.4h-352v-201.6h432v35.2h51.2v-83.2c0-3.2-3.2-9.6-9.6-9.6H256c-3.2 0-9.6 3.2-9.6 9.6v294.4c0 3.2 3.2 9.6 9.6 9.6h393.6z" fill="#53AFFD" p-id="19453"></path><path d="M297.6 396.8v201.6h352v-144c0-12.8 9.6-22.4 19.2-22.4h57.6v-35.2H297.6z" fill="#FFFFFF" p-id="19454"></path><path d="M672 454.4v278.4h153.6v-278.4H672z m124.8 64c0 6.4-3.2 9.6-9.6 9.6h-73.6c-6.4 0-9.6-3.2-9.6-9.6V512c0-6.4 3.2-9.6 9.6-9.6h73.6c6.4 0 9.6 3.2 9.6 9.6v6.4z m0 67.2c0 6.4-3.2 9.6-9.6 9.6h-73.6c-6.4 0-9.6-3.2-9.6-9.6v-3.2c0-6.4 3.2-9.6 9.6-9.6h73.6c6.4 0 9.6 3.2 9.6 9.6v3.2z m-48 102.4c-12.8 0-22.4-9.6-22.4-22.4s9.6-22.4 22.4-22.4 22.4 9.6 22.4 22.4-9.6 22.4-22.4 22.4z" fill="#1083EA" p-id="19455"></path><path d="M825.6 432H800v-83.2c0-16-12.8-28.8-28.8-28.8H256c-16 0-32 12.8-32 28.8v294.4c0 16 12.8 32 28.8 32h198.4v38.4h-48c-12.8 0-22.4 9.6-22.4 22.4s9.6 22.4 22.4 22.4h217.6c12.8 0 22.4-9.6 22.4-22.4s-9.6-22.4-22.4-22.4h-48V672h76.8v60.8c0 12.8 9.6 22.4 19.2 22.4h156.8c12.8 0 22.4-9.6 22.4-22.4v-281.6c0-9.6-9.6-19.2-22.4-19.2z m0 300.8H672v-278.4h153.6v278.4z m-352-22.4V672h73.6v38.4h-73.6zM256 652.8c-3.2 0-9.6-3.2-9.6-9.6v-294.4c0-3.2 3.2-9.6 9.6-9.6h515.2c3.2 0 9.6 3.2 9.6 9.6v83.2H672c-12.8 0-19.2 9.6-19.2 22.4v198.4H256z" p-id="19456"></path><path d="M796.8 512c0-6.4-3.2-9.6-9.6-9.6h-73.6c-6.4 0-9.6 3.2-9.6 9.6v3.2c0 6.4 3.2 9.6 9.6 9.6h73.6c6.4 0 9.6-3.2 9.6-9.6V512z m0 70.4c0-6.4-3.2-9.6-9.6-9.6h-73.6c-6.4 0-9.6 3.2-9.6 9.6v3.2c0 6.4 3.2 9.6 9.6 9.6h73.6c6.4 0 9.6-3.2 9.6-9.6v-3.2zM726.4 665.6c0 12.8 9.6 22.4 22.4 22.4s22.4-9.6 22.4-22.4-9.6-22.4-22.4-22.4-22.4 9.6-22.4 22.4z" p-id="19457"></path></svg>