<?xml version="1.0" standalone="no"?><!DOCTYPE svg PUBLIC "-//W3C//DTD SVG 1.1//EN" "http://www.w3.org/Graphics/SVG/1.1/DTD/svg11.dtd"><svg t="1744703313954" class="icon" viewBox="0 0 1024 1024" version="1.1" xmlns="http://www.w3.org/2000/svg" p-id="3548" xmlns:xlink="http://www.w3.org/1999/xlink" width="16" height="16"><path d="M512 512m-512 0a512 512 0 1 0 1024 0 512 512 0 1 0-1024 0Z" fill="#EF2348" p-id="3549"></path><path d="M173.0048 619.6224l-40.448-5.0176 28.0064-211.5584 41.1648 4.2496-28.7232 212.3264z m186.88-11.0592l-40.704 5.2736-21.3504-207.36 39.3216-5.2224 22.6816 207.3088z m-157.3376 20.48v-31.7952h26.9312V392.0384h40.9088v237.056H202.5472zM485.9904 627.5072l-88.6784 0.256v-30.0032h88.6784v29.696z m148.0704-0.256h-144.896v-31.8464h52.224V426.24h-39.2704v-31.8464h125.0816l-0.256 31.8464h-43.52v169.1648h50.6368v31.8464zM397.312 503.04l-0.256-42.5984 34.56-71.8336 35.1232 14.7456-32.768 64.9728h7.424l19.8144-37.12 34.048 13.7216-52.2752 100.7616 43.8272-0.256v31.0272l-88.9856-0.256 0.3072-29.184 24.2688-43.9808h-25.088zM792.1664 505.3952V434.8928h-30.3616v70.5024h30.3616z m-131.1744 31.3344v-31.3344h57.5488V434.8928H660.992v-31.2832h57.5488V389.12h3.6864v-0.256h35.84V389.12h3.7376v14.4896l73.3696 0.256V505.344h12.9536v-0.256h43.264l-0.256 115.2512-89.4976 0.256v-31.0272l46.4896 0.256v-53.1456h-86.3232l0.256 96.5632-43.52 0.256v-96.8192H660.992z m230.144-79.4624l-39.5776 8.448-11.6224-75.52 38.2464-7.168 12.9536 74.24z" fill="#FFFFFF" p-id="3550"></path></svg>